<svg xmlns="http://www.w3.org/2000/svg" width="24.922" height="15.123" viewBox="0 0 24.922 15.123">
  <g id="Group_108" data-name="Group 108" transform="translate(0 -80.8)">
    <path id="Path_475" data-name="Path 475" d="M114.867,81.122H113.2V80.8h1.492Z" transform="translate(-104.922)" fill="#0c294d"/>
    <path id="Path_476" data-name="Path 476" d="M113.6,97.2h2.106l.7,1.346H113.6Z" transform="translate(-105.293 -15.201)" fill="#0c294d"/>
    <path id="Path_477" data-name="Path 477" d="M80.7,128.78H68l.965-1.58H79.32Z" transform="translate(-63.027 -43.007)" fill="#0c294d"/>
    <path id="Path_478" data-name="Path 478" d="M67.933,161.853H52.4l.644-1.053H67Z" transform="translate(-48.568 -74.15)" fill="#0c294d"/>
    <path id="Path_479" data-name="Path 479" d="M26.4,187.2H49.392l-3.656,3.861-.351-.263a3.761,3.761,0,0,0-5.031,0,2.9,2.9,0,0,1-3.978,0,3.719,3.719,0,0,0-2.516-.965,3.782,3.782,0,0,0-2.516.965,2.8,2.8,0,0,1-1.784.761,2.7,2.7,0,0,1-1.872-.819A6,6,0,0,1,26.4,187.2Z" transform="translate(-24.469 -98.619)" fill="#0c294d"/>
    <g id="Group_105" data-name="Group 105" transform="translate(0 91.009)">
      <g id="Group_104" data-name="Group 104">
        <path id="Path_480" data-name="Path 480" d="M22.962,222.155a2.821,2.821,0,0,1-1.989-.79,3.761,3.761,0,0,0-5.031,0,2.9,2.9,0,0,1-3.978,0,3.719,3.719,0,0,0-2.516-.965,3.782,3.782,0,0,0-2.516.965,2.838,2.838,0,0,1-1.989.79,2.821,2.821,0,0,1-1.989-.79A3.719,3.719,0,0,0,.439,220.4a.439.439,0,0,0,0,.878,2.822,2.822,0,0,1,1.989.79,3.642,3.642,0,0,0,2.516.965,3.782,3.782,0,0,0,2.516-.965,2.9,2.9,0,0,1,3.978,0,3.761,3.761,0,0,0,5.031,0,2.9,2.9,0,0,1,3.978,0,3.719,3.719,0,0,0,2.516.965.439.439,0,1,0,0-.878Z" transform="translate(0 -220.4)" fill="#0c294d"/>
      </g>
    </g>
    <g id="Group_107" data-name="Group 107" transform="translate(0 93.29)">
      <g id="Group_106" data-name="Group 106" transform="translate(0 0)">
        <path id="Path_481" data-name="Path 481" d="M22.962,253.355a2.821,2.821,0,0,1-1.989-.79,3.761,3.761,0,0,0-5.031,0,2.9,2.9,0,0,1-3.978,0,3.719,3.719,0,0,0-2.516-.965,3.782,3.782,0,0,0-2.516.965,2.838,2.838,0,0,1-1.989.79,2.822,2.822,0,0,1-1.989-.79A3.719,3.719,0,0,0,.439,251.6a.439.439,0,0,0,0,.878,2.822,2.822,0,0,1,1.989.79,3.642,3.642,0,0,0,2.516.965,3.782,3.782,0,0,0,2.516-.965,2.9,2.9,0,0,1,3.978,0,3.761,3.761,0,0,0,5.031,0,2.9,2.9,0,0,1,3.978,0,3.719,3.719,0,0,0,2.516.965.439.439,0,1,0,0-.878Z" transform="translate(0 -251.6)" fill="#0c294d"/>
      </g>
    </g>
  </g>
</svg>
