<svg id="Group_91" data-name="Group 91" xmlns="http://www.w3.org/2000/svg" width="20.481" height="20.481" viewBox="0 0 20.481 20.481">
  <path id="Path_464" data-name="Path 464" d="M19.881,9.64h-.67a8.95,8.95,0,0,0-2.2-5.317l.447-.447a.6.6,0,0,0-.848-.848l-.447.447a8.95,8.95,0,0,0-5.317-2.2V.6a.6.6,0,0,0-1.2,0v.67a8.95,8.95,0,0,0-5.317,2.2l-.447-.447a.6.6,0,0,0-.848.848l.447.447A8.95,8.95,0,0,0,1.27,9.64H.6a.6.6,0,0,0,0,1.2h.67a8.95,8.95,0,0,0,2.2,5.317l-.447.447a.6.6,0,0,0,.848.848l.447-.447a8.95,8.95,0,0,0,5.317,2.2v.67a.6.6,0,0,0,1.2,0v-.67a8.95,8.95,0,0,0,5.317-2.2l.447.447a.6.6,0,0,0,.848-.848l-.447-.447a8.95,8.95,0,0,0,2.2-5.317h.67a.6.6,0,0,0,0-1.2ZM5.171,6.02,7.74,8.589A2.98,2.98,0,0,0,7.3,9.64H3.671A6.568,6.568,0,0,1,5.171,6.02Zm-1.5,4.82H7.3a2.98,2.98,0,0,0,.439,1.052L5.171,14.461A6.568,6.568,0,0,1,3.671,10.84Zm5.97,5.97a6.569,6.569,0,0,1-3.62-1.5l2.569-2.569a2.98,2.98,0,0,0,1.052.439Zm0-9.509a2.98,2.98,0,0,0-1.052.439L6.02,5.171a6.569,6.569,0,0,1,3.62-1.5Zm1.2-3.63a6.569,6.569,0,0,1,3.62,1.5L11.892,7.74A2.98,2.98,0,0,0,10.84,7.3Zm0,13.14V13.18a2.98,2.98,0,0,0,1.052-.439l2.569,2.569A6.569,6.569,0,0,1,10.84,16.81Zm4.469-2.349-2.569-2.569a3,3,0,0,0,.439-1.056h3.63A6.581,6.581,0,0,1,15.309,14.461ZM13.18,9.64a2.98,2.98,0,0,0-.439-1.052L15.309,6.02a6.568,6.568,0,0,1,1.5,3.62Z" fill="#0c294d"/>
</svg>
